<?xml version="1.0" encoding="UTF-8"?>
<svg id="Layer_1" xmlns="http://www.w3.org/2000/svg" version="1.1" viewBox="0 0 725.06 724.82">
  <!-- Generator: Adobe Illustrator 29.0.1, SVG Export Plug-In . SVG Version: 2.1.0 Build 192)  -->
  <path d="M670.97,54.21c-8.34-8.34-21.81-8.54-30.4-.45L61.88,599.52c-6.6,6.22-11.12,14.19-13.09,23.04-3.36,15.14,1.17,30.72,12.14,41.69,8.58,8.58,19.99,13.23,31.81,13.23,3.28,0,6.59-.36,9.88-1.09,8.85-1.97,16.81-6.49,23.04-13.09L671.41,84.6c8.1-8.59,7.9-22.05-.45-30.4Z"/>
  <path d="M662.02,158.17l-54.61,57.9c25.68,42.8,40.45,92.92,40.45,146.46,0,157.57-127.76,285.32-285.32,285.32-47.57,0-92.45-11.65-131.89-32.29l-54.58,57.9c54.48,32.76,118.29,51.59,186.47,51.59,200.23,0,362.53-162.3,362.53-362.53,0-75.8-23.26-146.15-63.04-204.36ZM362.53,77.21c53.61,0,103.76,14.8,146.59,40.55l57.9-54.61C508.82,23.3,438.39,0,362.53,0,162.3,0,0,162.3,0,362.53c0,68.24,18.86,132.09,51.69,186.6l57.87-54.58c-20.68-39.48-32.36-84.39-32.36-132.02,0-157.57,127.76-285.32,285.32-285.32Z"/>
  <path d="M362.53,130.91c-127.93,0-231.62,103.69-231.62,231.62,0,33.23,6.98,64.82,19.6,93.39l58.84-55.49c-3.02-12.15-4.6-24.84-4.6-37.9,0-87.14,70.63-157.77,157.77-157.77,16.31,0,32.02,2.48,46.83,7.05l58.81-55.45c-31.65-16.28-67.57-25.44-105.64-25.44ZM568.77,257.03l-55.49,58.84c4.57,14.74,7.02,30.41,7.02,46.66,0,87.14-70.63,157.77-157.77,157.77-12.99,0-25.65-1.58-37.73-4.53l-55.52,58.84c28.53,12.55,60.05,19.54,93.25,19.54,127.93,0,231.62-103.69,231.62-231.62,0-38-9.16-73.88-25.38-105.5Z"/>
</svg>