<?xml version="1.0" encoding="UTF-8"?>
<svg id="Layer_1" xmlns="http://www.w3.org/2000/svg" version="1.1" viewBox="0 0 164 164">
  <!-- Generator: Adobe Illustrator 29.0.1, SVG Export Plug-In . SVG Version: 2.1.0 Build 192)  -->
  <path d="M136.45,27.57c-1.47-1.47-3.85-1.51-5.37-.08L28.92,123.84c-1.16,1.1-1.96,2.5-2.31,4.07-.59,2.67.21,5.42,2.14,7.36,1.52,1.52,3.53,2.34,5.62,2.34.58,0,1.16-.06,1.74-.19,1.56-.35,2.97-1.15,4.07-2.31l96.35-102.16c1.43-1.52,1.39-3.89-.08-5.37Z"/>
  <path d="M134.87,45.92l-9.64,10.22c4.53,7.56,7.14,16.4,7.14,25.85,0,27.82-22.55,50.37-50.37,50.37-8.4,0-16.32-2.06-23.28-5.7l-9.64,10.22c9.62,5.78,20.88,9.11,32.92,9.11,35.35,0,64-28.65,64-64,0-13.38-4.11-25.8-11.13-36.08ZM82,31.63c9.46,0,18.32,2.61,25.88,7.16l10.22-9.64c-10.28-7.03-22.71-11.15-36.1-11.15-35.35,0-64,28.65-64,64,0,12.05,3.33,23.32,9.13,32.94l10.22-9.64c-3.65-6.97-5.71-14.9-5.71-23.31,0-27.82,22.55-50.37,50.37-50.37Z"/>
  <path d="M82,41.11c-22.58,0-40.89,18.31-40.89,40.89,0,5.87,1.23,11.44,3.46,16.49l10.39-9.8c-.53-2.15-.81-4.39-.81-6.69,0-15.38,12.47-27.85,27.85-27.85,2.88,0,5.65.44,8.27,1.24l10.38-9.79c-5.59-2.87-11.93-4.49-18.65-4.49ZM118.41,63.37l-9.8,10.39c.81,2.6,1.24,5.37,1.24,8.24,0,15.38-12.47,27.85-27.85,27.85-2.29,0-4.53-.28-6.66-.8l-9.8,10.39c5.04,2.22,10.6,3.45,16.46,3.45,22.58,0,40.89-18.31,40.89-40.89,0-6.71-1.62-13.04-4.48-18.63Z"/>
</svg>